<?xml version="1.0" encoding="UTF-8"?>
<svg version="1.1" xmlns="http://www.w3.org/2000/svg" width="320" height="320">
<path d="M0 0 C105.6 0 211.2 0 320 0 C320 105.6 320 211.2 320 320 C214.4 320 108.8 320 0 320 C0 214.4 0 108.8 0 0 Z " fill="#000000" transform="translate(0,0)"/>
<path d="M0 0 C21.44497502 -2.55297322 21.44497502 -2.55297322 28.80175781 1.5703125 C33.95363191 5.69666631 38.15558538 10.65372207 42 16 C44.79231631 14.71694163 46.92587747 13.3505483 49.1640625 11.25 C49.72867188 10.7240625 50.29328125 10.198125 50.875 9.65625 C51.4525 9.1096875 52.03 8.563125 52.625 8 C53.21023437 7.4534375 53.79546875 6.906875 54.3984375 6.34375 C56.62819701 4.25718606 58.84055695 2.15944305 61 0 C63.61376953 -0.22705078 63.61376953 -0.22705078 66.8828125 -0.1953125 C68.63271484 -0.18564453 68.63271484 -0.18564453 70.41796875 -0.17578125 C71.64128906 -0.15902344 72.86460937 -0.14226562 74.125 -0.125 C75.35605469 -0.11597656 76.58710938 -0.10695313 77.85546875 -0.09765625 C80.90383815 -0.07402548 83.95182382 -0.04108054 87 0 C83.19956819 4.60542852 79.24702661 8.81728418 74.8125 12.8125 C74.25731689 13.3187793 73.70213379 13.82505859 73.13012695 14.34667969 C71.42348289 15.9015735 69.7118684 17.45086234 68 19 C66.90323917 19.9982513 65.80687287 20.99693628 64.7109375 21.99609375 C62.1443843 24.33488714 59.57352194 26.66887391 57 29 C58.27926297 31.80911274 59.60109956 33.8455049 61.79736328 36.00854492 C62.35779327 36.56559616 62.91822327 37.1226474 63.49563599 37.69657898 C64.09777924 38.2852626 64.69992249 38.87394623 65.3203125 39.48046875 C65.93897186 40.09392654 66.55763123 40.70738434 67.19503784 41.33943176 C69.16699558 43.2936052 71.14552483 45.240944 73.125 47.1875 C75.11071516 49.14564244 77.09497052 51.10520941 79.0763855 53.06770325 C80.30896079 54.28797111 81.54419809 55.50555677 82.78225708 56.72026062 C84.20691242 58.128125 85.60634343 59.56144297 87 61 C87 61.33 87 61.66 87 62 C62.85242832 63.90547553 62.85242832 63.90547553 57.03515625 59.796875 C54.32124872 57.01064736 52.14770285 54.23674005 50 51 C48.78860641 49.58871443 47.56232922 48.18986281 46.3125 46.8125 C45.549375 45.884375 44.78625 44.95625 44 44 C38.97582476 48.01920985 38.97582476 48.01920985 35.03515625 53.0703125 C32.51688086 56.86290947 30.18225675 59.98662395 26 62 C17.12315244 63.53215686 7.93227888 62.73828309 -1 62 C4.58372775 55.39873117 10.37552733 49.21127568 16.9375 43.5625 C24.94407262 37.07959671 24.94407262 37.07959671 31 29 C30.17242187 28.66548828 30.17242187 28.66548828 29.328125 28.32421875 C26.2694324 26.58445903 24.1926188 24.34235518 21.75 21.8125 C17.94998474 17.92136031 14.05923993 14.23362545 9.92578125 10.69921875 C6.45877581 7.6400963 3.1255646 4.40819544 0 1 C0 0.67 0 0.34 0 0 Z " fill="#FCFCFC" transform="translate(201,115)"/>
<path d="M0 0 C5.73375 -0.061875 11.4675 -0.12375 17.375 -0.1875 C19.16341309 -0.21481201 20.95182617 -0.24212402 22.79443359 -0.27026367 C41.98052793 -0.44269514 41.98052793 -0.44269514 49.5625 5.5625 C53.43398755 9.43398755 53.24207435 12.51033187 53.3125 17.75 C53.34150391 18.45382813 53.37050781 19.15765625 53.40039062 19.8828125 C53.46265825 25.03665623 52.42701686 27.9394677 49 32 C47.10546875 33.42578125 47.10546875 33.42578125 45.1875 34.3125 C44.56230469 34.61800781 43.93710938 34.92351562 43.29296875 35.23828125 C37.64588427 37.11422925 31.77252748 37.14083421 25.87890625 37.09765625 C25.2175769 37.09664917 24.55624756 37.09564209 23.87487793 37.09460449 C21.43740063 37.0894276 18.99994831 37.07546698 16.5625 37.0625 C8.3640625 37.0315625 8.3640625 37.0315625 0 37 C0 24.79 0 12.58 0 0 Z " fill="#FBFBFB" transform="translate(38,140)"/>
<path d="M0 0 C13.86 0 27.72 0 42 0 C42 2.97 42 5.94 42 9 C33.09 9 24.18 9 15 9 C15 10.98 15 12.96 15 15 C22.59 15 30.18 15 38 15 C38 17.31 38 19.62 38 22 C30.41 22 22.82 22 15 22 C15 23.98 15 25.96 15 28 C24.9 28 34.8 28 45 28 C45 30.97 45 33.94 45 37 C30.15 37 15.3 37 0 37 C0 24.79 0 12.58 0 0 Z " fill="#FDFDFD" transform="translate(98,140)"/>
<path d="M0 0 C4.95 0 9.9 0 15 0 C19 8 23 16 27 24 C29.23968237 21.76031763 30.09009463 19.87594274 31.3828125 16.9921875 C31.82753906 16.00605469 32.27226562 15.01992187 32.73046875 14.00390625 C33.19066406 12.97136719 33.65085938 11.93882812 34.125 10.875 C34.59292969 9.83472656 35.06085938 8.79445312 35.54296875 7.72265625 C36.69936843 5.15025697 37.85020981 2.57536032 39 0 C44.28 0 49.56 0 55 0 C53.35498048 4.11254881 51.5178245 7.87570544 49.375 11.7265625 C49.02743652 12.35605804 48.67987305 12.98555359 48.32177734 13.63412476 C47.59024276 14.95769074 46.85730723 16.28048328 46.12304688 17.60253906 C45.00063396 19.62385831 43.88277967 21.64764572 42.765625 23.671875 C42.05234901 24.96108452 41.33881614 26.25015197 40.625 27.5390625 C40.29161621 28.14223297 39.95823242 28.74540344 39.61474609 29.36685181 C38.15878272 31.98540792 36.66347076 34.50479387 35 37 C30.02052836 38.41914942 24.86998041 39.01718175 20 37 C15.79619064 33.15628596 13.58600399 27.58891948 11.21337891 22.51220703 C9.15099134 18.24219334 6.73391057 14.17356505 4.375 10.0625 C0 2.33775253 0 2.33775253 0 0 Z " fill="#FAFAFA" transform="translate(146,140)"/>
<path d="M0 0 C14.50043691 -0.41038972 14.50043691 -0.41038972 20 3 C21.73297665 6.4659533 21.60552145 10.21885492 21 14 C18.26192064 17.0423104 15.95174754 18.26948329 12 19 C7.99544707 19.12968112 4.00797415 19.04356494 0 19 C0 12.73 0 6.46 0 0 Z " fill="#040404" transform="translate(54,149)"/>
<path d="M0 0 C13.77702025 -0.41748546 13.77702025 -0.41748546 18 3 C18.5625 6.5 18.5625 6.5 18 10 C15.55556819 12.63757211 14.16523554 12.98598115 10.546875 13.29296875 C9.29390625 13.25816406 8.0409375 13.22335938 6.75 13.1875 C5.48671875 13.16042969 4.2234375 13.13335937 2.921875 13.10546875 C1.95765625 13.07066406 0.9934375 13.03585938 0 13 C0 8.71 0 4.42 0 0 Z " fill="#FBFBFB" transform="translate(100,187)"/>
<path d="M0 0 C2.75 1.5625 2.75 1.5625 4 4 C3.9375 7.625 3.9375 7.625 3 11 C-0.33397306 13.22264871 -1.59514891 13.29675463 -5.5 13.3125 C-6.4590625 13.32925781 -7.418125 13.34601563 -8.40625 13.36328125 C-11 13 -11 13 -12.8203125 11.69921875 C-14.79523028 8.85455241 -14.35754552 6.33709156 -14 3 C-10.71309219 -1.69713229 -5.13004434 -0.67480404 0 0 Z " fill="#F2F2F2" transform="translate(195,187)"/>
<path d="M0 0 C2.45862401 -0.05383848 4.9160755 -0.09359038 7.375 -0.125 C8.42300781 -0.15013672 8.42300781 -0.15013672 9.4921875 -0.17578125 C11.32897486 -0.19344267 13.16601963 -0.10303261 15 0 C17 2 17 2 17.125 4.4375 C17.08375 5.283125 17.0425 6.12875 17 7 C17 7.99 17 8.98 17 10 C17 10.99 17 11.98 17 13 C14.625 13.1875 14.625 13.1875 12 13 C11.34 12.01 10.68 11.02 10 10 C7.43717258 9.27034634 7.43717258 9.27034634 5 9 C5 10.32 5 11.64 5 13 C3.35 13 1.7 13 0 13 C0 8.71 0 4.42 0 0 Z " fill="#FAFAFA" transform="translate(121,187)"/>
<path d="M0 0 C3.125 -0.4375 3.125 -0.4375 7 0 C9.38682039 2.06581634 11.20049043 4.41608882 13 7 C13.33 4.69 13.66 2.38 14 0 C15.65 0 17.3 0 19 0 C19 4.29 19 8.58 19 13 C15.8125 13.375 15.8125 13.375 12 13 C9.7527123 11.19771976 8.62056576 9.45540267 7 7 C7 6.34 7 5.68 7 5 C6.34 5 5.68 5 5 5 C5 7.64 5 10.28 5 13 C3.35 13 1.7 13 0 13 C0 8.71 0 4.42 0 0 Z " fill="#FAFAFA" transform="translate(201,187)"/>
<path d="M0 0 C1.43859375 0.00580078 1.43859375 0.00580078 2.90625 0.01171875 C5.5 0.3125 5.5 0.3125 8.5 2.3125 C8.5 2.9725 8.5 3.6325 8.5 4.3125 C5.2 4.3125 1.9 4.3125 -1.5 4.3125 C-1.83 5.6325 -2.16 6.9525 -2.5 8.3125 C-1.18 8.6425 0.14 8.9725 1.5 9.3125 C1.5 8.3225 1.5 7.3325 1.5 6.3125 C4.14 6.3125 6.78 6.3125 9.5 6.3125 C9.5 8.6225 9.5 10.9325 9.5 13.3125 C7.06183415 13.3934723 4.62635616 13.45296972 2.1875 13.5 C1.15206055 13.53770508 1.15206055 13.53770508 0.09570312 13.57617188 C-4.98936074 13.64986845 -4.98936074 13.64986845 -7.45703125 12.01953125 C-9.22557834 9.12494293 -8.85187635 6.59667924 -8.5 3.3125 C-6.15059919 -0.0715707 -3.95967855 -0.06918793 0 0 Z " fill="#ECECEC" transform="translate(169.5,186.6875)"/>
<path d="M0 0 C3.06640625 0.53125 3.06640625 0.53125 5.1484375 2.61328125 C5.71949219 3.51433594 6.29054687 4.41539062 6.87890625 5.34375 C7.75482422 6.68373047 7.75482422 6.68373047 8.6484375 8.05078125 C10.06640625 10.53125 10.06640625 10.53125 11.06640625 13.53125 C9.08640625 13.53125 7.10640625 13.53125 5.06640625 13.53125 C5.06640625 12.87125 5.06640625 12.21125 5.06640625 11.53125 C3.58672301 11.67174518 2.10766109 11.81879826 0.62890625 11.96875 C-0.60666016 12.09056641 -0.60666016 12.09056641 -1.8671875 12.21484375 C-3.920214 12.32055815 -3.920214 12.32055815 -4.93359375 13.53125 C-6.5997649 13.57188832 -8.2674747 13.573971 -9.93359375 13.53125 C-8.81215769 10.26889056 -7.34869659 7.233068 -5.68359375 4.21875 C-5.3071875 3.52136719 -4.93078125 2.82398438 -4.54296875 2.10546875 C-2.93359375 0.53125 -2.93359375 0.53125 0 0 Z " fill="#E8E8E8" transform="translate(149.93359375,186.46875)"/>
<path d="M0 0 C2.875 -0.125 2.875 -0.125 6 0 C6.66 0.66 7.32 1.32 8 2 C7.46428571 5.53571429 7.46428571 5.53571429 6 7 C4.00041636 7.04080783 1.99954746 7.04254356 0 7 C0 4.69 0 2.38 0 0 Z " fill="#1E1E1E" transform="translate(105,190)"/>
<path d="M0 0 C0.99773437 0.02320313 1.99546875 0.04640625 3.0234375 0.0703125 C4.52777344 0.09738281 4.52777344 0.09738281 6.0625 0.125 C6.83335937 0.14820313 7.60421875 0.17140625 8.3984375 0.1953125 C8.3984375 0.8553125 8.3984375 1.5153125 8.3984375 2.1953125 C5.7584375 2.5253125 3.1184375 2.8553125 0.3984375 3.1953125 C0.7284375 4.5153125 1.0584375 5.8353125 1.3984375 7.1953125 C-0.2515625 6.8653125 -1.9015625 6.5353125 -3.6015625 6.1953125 C-4.2265625 4.3203125 -4.2265625 4.3203125 -4.6015625 2.1953125 C-2.6015625 0.1953125 -2.6015625 0.1953125 0 0 Z " fill="#272727" transform="translate(170.6015625,189.8046875)"/>
<path d="M0 0 C1.67542976 0.28604898 3.34385343 0.61781233 5 1 C5 2.65 5 4.3 5 6 C2.625 6.625 2.625 6.625 0 7 C-0.66 6.34 -1.32 5.68 -2 5 C-1.46428571 1.46428571 -1.46428571 1.46428571 0 0 Z " fill="#191919" transform="translate(188,190)"/>
<path d="M0 0 C1.98 0 3.96 0 6 0 C6 0.99 6 1.98 6 3 C4.02 3 2.04 3 0 3 C0 2.01 0 1.02 0 0 Z " fill="#1B1B1B" transform="translate(126,190)"/>
</svg>
